<svg width="680" height="600" viewBox="0 0 680 600" xmlns="http://www.w3.org/2000/svg" font-family="'Segoe UI', Arial, sans-serif">
  <defs>
    <marker id="arrow" viewBox="0 0 10 10" refX="8" refY="5" markerWidth="6" markerHeight="6" orient="auto-start-reverse">
      <path d="M2 1L8 5L2 9" fill="none" stroke="context-stroke" stroke-width="1.5" stroke-linecap="round" stroke-linejoin="round"/>
    </marker>
  </defs>
  <rect width="680" height="600" fill="#FFFFFF"/>
  <text x="340" y="28" text-anchor="middle" font-size="15" font-weight="600" fill="#1a1a1a">Spring Boot 4.0.6 + Angular 21 — Kubernetes Architecture</text>
  <rect x="162" y="50" width="502" height="490" rx="16" fill="#F8F8F6" stroke="#B4B2A9" stroke-width="1.5" stroke-dasharray="7 4"/>
  <text x="186" y="72" font-size="12" fill="#5F5E5A" font-weight="500">namespace: helloworld</text>
  <rect x="18" y="260" width="126" height="56" rx="8" fill="#F1EFE8" stroke="#888780" stroke-width="0.8"/>
  <text x="81" y="282" text-anchor="middle" font-size="13" font-weight="600" fill="#2C2C2A">curl / Browser</text>
  <text x="81" y="300" text-anchor="middle" font-size="11" fill="#5F5E5A">http://localhost</text>
  <line x1="146" y1="288" x2="190" y2="288" stroke="#888780" stroke-width="1.5" marker-end="url(#arrow)"/>
  <text x="168" y="280" text-anchor="middle" font-size="10" fill="#5F5E5A">:80</text>
  <rect x="192" y="218" width="152" height="140" rx="8" fill="#E1F5EE" stroke="#0F6E56" stroke-width="0.8"/>
  <text x="268" y="248" text-anchor="middle" font-size="13" font-weight="600" fill="#085041">NGINX Ingress</text>
  <text x="268" y="267" text-anchor="middle" font-size="11" fill="#0F6E56">ingress-nginx</text>
  <text x="268" y="285" text-anchor="middle" font-size="11" fill="#0F6E56">/api/v1 to API svc</text>
  <text x="268" y="303" text-anchor="middle" font-size="11" fill="#0F6E56">/actuator to API svc</text>
  <text x="268" y="321" text-anchor="middle" font-size="11" fill="#0F6E56">/ to Angular svc</text>
  <text x="268" y="339" text-anchor="middle" font-size="11" fill="#0F6E56">ingressClass: nginx</text>
  <line x1="346" y1="266" x2="388" y2="266" stroke="#0F6E56" stroke-width="1.5" marker-end="url(#arrow)"/>
  <text x="367" y="258" text-anchor="middle" font-size="9" fill="#0F6E56">/api</text>
  <line x1="346" y1="328" x2="388" y2="328" stroke="#0F6E56" stroke-width="1.5" marker-end="url(#arrow)"/>
  <text x="367" y="320" text-anchor="middle" font-size="9" fill="#0F6E56">/</text>
  <rect x="390" y="234" width="144" height="64" rx="8" fill="#E6F1FB" stroke="#185FA5" stroke-width="0.8"/>
  <text x="462" y="258" text-anchor="middle" font-size="12" font-weight="600" fill="#0C447C">API Service</text>
  <text x="462" y="275" text-anchor="middle" font-size="11" fill="#185FA5">ClusterIP 80-8080</text>
  <text x="462" y="290" text-anchor="middle" font-size="11" fill="#185FA5">helloworld-service</text>
  <rect x="390" y="310" width="144" height="56" rx="8" fill="#EAF3DE" stroke="#3B6D11" stroke-width="0.8"/>
  <text x="462" y="334" text-anchor="middle" font-size="12" font-weight="600" fill="#27500A">UI Service</text>
  <text x="462" y="351" text-anchor="middle" font-size="11" fill="#3B6D11">ClusterIP 80-8080</text>
  <text x="462" y="366" text-anchor="middle" font-size="11" fill="#3B6D11">angular-ui-service</text>
  <path d="M462 234 L462 190 L550 190 L550 162" fill="none" stroke="#185FA5" stroke-width="1.5" marker-end="url(#arrow)"/>
  <path d="M534 266 L570 266 L570 380 L596 380" fill="none" stroke="#185FA5" stroke-width="1.5" marker-end="url(#arrow)"/>
  <path d="M534 338 L580 338 L580 470 L596 470" fill="none" stroke="#3B6D11" stroke-width="1.5" marker-end="url(#arrow)"/>
  <rect x="482" y="80" width="172" height="80" rx="8" fill="#EEEDFE" stroke="#534AB7" stroke-width="0.8"/>
  <text x="568" y="108" text-anchor="middle" font-size="12" font-weight="600" fill="#3C3489">SB Pod 1</text>
  <text x="568" y="126" text-anchor="middle" font-size="11" fill="#534AB7">Spring Boot 4.0.6</text>
  <text x="568" y="143" text-anchor="middle" font-size="11" fill="#534AB7">Java 21 :8080</text>
  <text x="568" y="170" text-anchor="middle" font-size="10" fill="#888780">/actuator/health OK</text>
  <rect x="596" y="350" width="70" height="80" rx="8" fill="#EEEDFE" stroke="#534AB7" stroke-width="0.8"/>
  <text x="631" y="375" text-anchor="middle" font-size="12" font-weight="600" fill="#3C3489">SB Pod 2</text>
  <text x="631" y="393" text-anchor="middle" font-size="11" fill="#534AB7">SB 4.0.6</text>
  <text x="631" y="410" text-anchor="middle" font-size="11" fill="#534AB7">:8080</text>
  <text x="631" y="435" text-anchor="middle" font-size="10" fill="#888780">health OK</text>
  <rect x="596" y="440" width="70" height="80" rx="8" fill="#EAF3DE" stroke="#3B6D11" stroke-width="0.8"/>
  <text x="631" y="462" text-anchor="middle" font-size="12" font-weight="600" fill="#27500A">NG Pod</text>
  <text x="631" y="480" text-anchor="middle" font-size="11" fill="#3B6D11">Angular 21</text>
  <text x="631" y="497" text-anchor="middle" font-size="11" fill="#3B6D11">NGINX :8080</text>
  <text x="631" y="520" text-anchor="middle" font-size="10" fill="#888780">health OK</text>
  <rect x="386" y="510" width="160" height="44" rx="8" fill="#FAEEDA" stroke="#BA7517" stroke-width="0.8"/>
  <text x="466" y="529" text-anchor="middle" font-size="12" font-weight="600" fill="#633806">HPA (SB)</text>
  <text x="466" y="545" text-anchor="middle" font-size="11" fill="#BA7517">2-5 replicas CPU/mem</text>
  <line x1="466" y1="510" x2="466" y2="300" stroke="#BA7517" stroke-width="1.2" stroke-dasharray="5 3" marker-end="url(#arrow)"/>
  <rect x="18" y="340" width="140" height="126" rx="8" fill="#F1EFE8" stroke="#B4B2A9" stroke-width="0.8"/>
  <text x="88" y="360" text-anchor="middle" font-size="11" font-weight="600" fill="#2C2C2A">Endpoints</text>
  <text x="30" y="378" font-size="10" fill="#444441">GET  /api/v1/hello</text>
  <text x="30" y="394" font-size="10" fill="#444441">GET  /api/v1/hello/{n}</text>
  <text x="30" y="410" font-size="10" fill="#444441">POST /api/v1/hello</text>
  <text x="30" y="426" font-size="10" fill="#444441">GET  /api/v1/info</text>
  <text x="30" y="442" font-size="10" fill="#5F5E5A">GET  /actuator/health</text>
  <text x="30" y="458" font-size="10" fill="#3B6D11">GET  / Angular UI</text>
  <rect x="18" y="476" width="140" height="88" rx="8" fill="#FCEBEB" stroke="#A32D2D" stroke-width="0.8"/>
  <text x="88" y="494" text-anchor="middle" font-size="11" font-weight="600" fill="#501313">Build</text>
  <text x="30" y="511" font-size="10" fill="#791F1F">mvn package -&gt; JAR</text>
  <text x="30" y="526" font-size="10" fill="#791F1F">Docker multi-stage (SB)</text>
  <text x="30" y="541" font-size="10" fill="#791F1F">npm build -&gt; NGINX (NG)</text>
  <text x="30" y="556" font-size="10" fill="#791F1F">imagePullPolicy: Never</text>
</svg>